<?xml version="1.0" encoding="utf-8"?>
<!-- Generator: Adobe Illustrator 24.3.0, SVG Export Plug-In . SVG Version: 6.00 Build 0)  -->
<svg version="1.1" id="レイヤー_1" xmlns="http://www.w3.org/2000/svg" xmlns:xlink="http://www.w3.org/1999/xlink" x="0px"
	 y="0px" viewBox="0 0 42 34" style="enable-background:new 0 0 42 34;" xml:space="preserve">
<style type="text/css">
	.st0{fill:#FFFFFF;}
</style>
<g>
	<polygon class="st0" points="21,19.2 11,10.7 9.7,12.2 21,21.9 32.3,12.2 31,10.7 	"/>
	<path class="st0" d="M36.3,0H5.7C2.5,0,0,2.7,0,5.9v22.1C0,31.3,2.5,34,5.7,34h30.7c3.1,0,5.7-2.7,5.7-5.9V5.9
		C42,2.7,39.5,0,36.3,0z M40,28.1c0,2.2-1.6,3.9-3.7,3.9H5.7c-2,0-3.7-1.8-3.7-3.9V5.9C2,3.8,3.7,2,5.7,2h30.7c2,0,3.7,1.8,3.7,3.9
		V28.1z"/>
</g>
</svg>
